<?xml version="1.0" encoding="utf-8" standalone="no"?>
<!DOCTYPE svg PUBLIC "-//W3C//DTD SVG 1.1//EN"
  "http://www.w3.org/Graphics/SVG/1.1/DTD/svg11.dtd">
<svg xmlns:xlink="http://www.w3.org/1999/xlink" width="797.338125pt" height="298.318125pt" viewBox="0 0 797.338125 298.318125" xmlns="http://www.w3.org/2000/svg" version="1.1">
 <metadata>
  <rdf:RDF xmlns:dc="http://purl.org/dc/elements/1.1/" xmlns:cc="http://creativecommons.org/ns#" xmlns:rdf="http://www.w3.org/1999/02/22-rdf-syntax-ns#">
   <cc:Work>
    <dc:type rdf:resource="http://purl.org/dc/dcmitype/StillImage"/>
    <dc:date>2026-05-19T21:00:10.430328</dc:date>
    <dc:format>image/svg+xml</dc:format>
    <dc:creator>
     <cc:Agent>
      <dc:title>Matplotlib v3.10.9, https://matplotlib.org/</dc:title>
     </cc:Agent>
    </dc:creator>
   </cc:Work>
  </rdf:RDF>
 </metadata>
 <defs>
  <style type="text/css">*{stroke-linejoin: round; stroke-linecap: butt}</style>
 </defs>
 <g id="figure_1">
  <g id="patch_1">
   <path d="M 0 298.318125 
L 797.338125 298.318125 
L 797.338125 0 
L 0 0 
z
" style="fill: #ffffff"/>
  </g>
  <g id="axes_1">
   <g id="patch_2">
    <path d="M 41.158125 264.96 
L 262.716949 264.96 
L 262.716949 43.2 
L 41.158125 43.2 
z
" style="fill: #ffffff"/>
   </g>
   <g id="FillBetweenPolyCollection_1">
    <path d="M 51.228981 169.368152 
L 51.228981 169.689545 
L 101.583259 186.971284 
L 126.760398 204.239583 
L 151.937537 223.528748 
L 177.114676 238.59521 
L 202.291815 248.136145 
L 252.646093 254.88 
L 252.646093 253.960571 
L 252.646093 253.960571 
L 202.291815 246.950594 
L 177.114676 236.912685 
L 151.937537 221.176231 
L 126.760398 201.995261 
L 101.583259 186.36268 
L 51.228981 169.368152 
z
" clip-path="url(#pa0536854dd)" style="fill: #1f77b4; fill-opacity: 0.18"/>
   </g>
   <g id="FillBetweenPolyCollection_2">
    <path d="M 51.228981 106.82492 
L 51.228981 106.93492 
L 101.583259 115.452238 
L 126.760398 125.846317 
L 151.937537 142.200982 
L 177.114676 160.222416 
L 202.291815 179.767142 
L 252.646093 205.54272 
L 252.646093 203.520051 
L 252.646093 203.520051 
L 202.291815 179.307445 
L 177.114676 159.685892 
L 151.937537 140.362689 
L 126.760398 124.430824 
L 101.583259 115.210626 
L 51.228981 106.82492 
z
" clip-path="url(#pa0536854dd)" style="fill: #d62728; fill-opacity: 0.18"/>
   </g>
   <g id="FillBetweenPolyCollection_3">
    <path d="M 51.228981 53.28 
L 51.228981 53.296175 
L 101.583259 61.345103 
L 126.760398 72.485731 
L 151.937537 75.739644 
L 177.114676 89.566232 
L 202.291815 98.036097 
L 252.646093 114.12204 
L 252.646093 111.589339 
L 252.646093 111.589339 
L 202.291815 97.112082 
L 177.114676 85.923999 
L 151.937537 75.57613 
L 126.760398 65.624341 
L 101.583259 57.783019 
L 51.228981 53.28 
z
" clip-path="url(#pa0536854dd)" style="fill: #2ca02c; fill-opacity: 0.18"/>
   </g>
   <g id="matplotlib.axis_1">
    <g id="xtick_1">
     <g id="line2d_1">
      <path d="M 101.583259 264.96 
L 101.583259 43.2 
" clip-path="url(#pa0536854dd)" style="fill: none; stroke: #b0b0b0; stroke-opacity: 0.25; stroke-width: 0.4; stroke-linecap: square"/>
     </g>
     <g id="line2d_2">
      <defs>
       <path id="m742c357c56" d="M 0 0 
L 0 3.5 
" style="stroke: #222222; stroke-width: 0.8"/>
      </defs>
      <g>
       <use xlink:href="#m742c357c56" x="101.583259" y="264.96" style="fill: #222222; stroke: #222222; stroke-width: 0.8"/>
      </g>
     </g>
     <g id="text_1">
      <!-- 0.40 -->
      <g style="fill: #222222" transform="translate(90.450446 279.558438) scale(0.1 -0.1)">
       <defs>
        <path id="DejaVuSans-30" d="M 2034 4250 
Q 1547 4250 1301 3770 
Q 1056 3291 1056 2328 
Q 1056 1369 1301 889 
Q 1547 409 2034 409 
Q 2525 409 2770 889 
Q 3016 1369 3016 2328 
Q 3016 3291 2770 3770 
Q 2525 4250 2034 4250 
z
M 2034 4750 
Q 2819 4750 3233 4129 
Q 3647 3509 3647 2328 
Q 3647 1150 3233 529 
Q 2819 -91 2034 -91 
Q 1250 -91 836 529 
Q 422 1150 422 2328 
Q 422 3509 836 4129 
Q 1250 4750 2034 4750 
z
" transform="scale(0.015625)"/>
        <path id="DejaVuSans-2e" d="M 684 794 
L 1344 794 
L 1344 0 
L 684 0 
L 684 794 
z
" transform="scale(0.015625)"/>
        <path id="DejaVuSans-34" d="M 2419 4116 
L 825 1625 
L 2419 1625 
L 2419 4116 
z
M 2253 4666 
L 3047 4666 
L 3047 1625 
L 3713 1625 
L 3713 1100 
L 3047 1100 
L 3047 0 
L 2419 0 
L 2419 1100 
L 313 1100 
L 313 1709 
L 2253 4666 
z
" transform="scale(0.015625)"/>
       </defs>
       <use xlink:href="#DejaVuSans-30"/>
       <use xlink:href="#DejaVuSans-2e" transform="translate(63.623047 0)"/>
       <use xlink:href="#DejaVuSans-34" transform="translate(95.410156 0)"/>
       <use xlink:href="#DejaVuSans-30" transform="translate(159.033203 0)"/>
      </g>
     </g>
    </g>
    <g id="xtick_2">
     <g id="line2d_3">
      <path d="M 164.526106 264.96 
L 164.526106 43.2 
" clip-path="url(#pa0536854dd)" style="fill: none; stroke: #b0b0b0; stroke-opacity: 0.25; stroke-width: 0.4; stroke-linecap: square"/>
     </g>
     <g id="line2d_4">
      <g>
       <use xlink:href="#m742c357c56" x="164.526106" y="264.96" style="fill: #222222; stroke: #222222; stroke-width: 0.8"/>
      </g>
     </g>
     <g id="text_2">
      <!-- 0.45 -->
      <g style="fill: #222222" transform="translate(153.393294 279.558438) scale(0.1 -0.1)">
       <defs>
        <path id="DejaVuSans-35" d="M 691 4666 
L 3169 4666 
L 3169 4134 
L 1269 4134 
L 1269 2991 
Q 1406 3038 1543 3061 
Q 1681 3084 1819 3084 
Q 2600 3084 3056 2656 
Q 3513 2228 3513 1497 
Q 3513 744 3044 326 
Q 2575 -91 1722 -91 
Q 1428 -91 1123 -41 
Q 819 9 494 109 
L 494 744 
Q 775 591 1075 516 
Q 1375 441 1709 441 
Q 2250 441 2565 725 
Q 2881 1009 2881 1497 
Q 2881 1984 2565 2268 
Q 2250 2553 1709 2553 
Q 1456 2553 1204 2497 
Q 953 2441 691 2322 
L 691 4666 
z
" transform="scale(0.015625)"/>
       </defs>
       <use xlink:href="#DejaVuSans-30"/>
       <use xlink:href="#DejaVuSans-2e" transform="translate(63.623047 0)"/>
       <use xlink:href="#DejaVuSans-34" transform="translate(95.410156 0)"/>
       <use xlink:href="#DejaVuSans-35" transform="translate(159.033203 0)"/>
      </g>
     </g>
    </g>
    <g id="xtick_3">
     <g id="line2d_5">
      <path d="M 227.468954 264.96 
L 227.468954 43.2 
" clip-path="url(#pa0536854dd)" style="fill: none; stroke: #b0b0b0; stroke-opacity: 0.25; stroke-width: 0.4; stroke-linecap: square"/>
     </g>
     <g id="line2d_6">
      <g>
       <use xlink:href="#m742c357c56" x="227.468954" y="264.96" style="fill: #222222; stroke: #222222; stroke-width: 0.8"/>
      </g>
     </g>
     <g id="text_3">
      <!-- 0.50 -->
      <g style="fill: #222222" transform="translate(216.336141 279.558438) scale(0.1 -0.1)">
       <use xlink:href="#DejaVuSans-30"/>
       <use xlink:href="#DejaVuSans-2e" transform="translate(63.623047 0)"/>
       <use xlink:href="#DejaVuSans-35" transform="translate(95.410156 0)"/>
       <use xlink:href="#DejaVuSans-30" transform="translate(159.033203 0)"/>
      </g>
     </g>
    </g>
    <g id="text_4">
     <!-- $\beta$ -->
     <g style="fill: #222222" transform="translate(148.737537 293.338125) scale(0.1 -0.1)">
      <defs>
       <path id="DejaVuSans-Oblique-3b2" d="M 872 216 
L 572 -1331 
L -6 -1331 
L 928 3478 
Q 1206 4903 2538 4903 
Q 3888 4903 3659 3700 
Q 3503 2844 2894 2531 
Q 3713 2250 3553 1416 
Q 3272 -69 1759 -66 
Q 1097 -63 872 216 
z
M 1019 966 
Q 1259 422 1875 425 
Q 2775 425 2966 1406 
Q 3138 2288 1675 2219 
L 1778 2750 
Q 2909 2731 3106 3750 
Q 3241 4438 2509 4434 
Q 1691 4434 1503 3459 
L 1019 966 
z
" transform="scale(0.015625)"/>
      </defs>
      <use xlink:href="#DejaVuSans-Oblique-3b2" transform="translate(0 0.390625)"/>
     </g>
    </g>
   </g>
   <g id="matplotlib.axis_2">
    <g id="ytick_1">
     <g id="line2d_7">
      <path d="M 41.158125 186.591253 
L 262.716949 186.591253 
" clip-path="url(#pa0536854dd)" style="fill: none; stroke: #b0b0b0; stroke-opacity: 0.25; stroke-width: 0.4; stroke-linecap: square"/>
     </g>
     <g id="line2d_8">
      <defs>
       <path id="me68d99a8f8" d="M 0 0 
L -3.5 0 
" style="stroke: #222222; stroke-width: 0.8"/>
      </defs>
      <g>
       <use xlink:href="#me68d99a8f8" x="41.158125" y="186.591253" style="fill: #222222; stroke: #222222; stroke-width: 0.8"/>
      </g>
     </g>
     <g id="text_5">
      <!-- $\mathdefault{10^{1}}$ -->
      <g style="fill: #222222" transform="translate(16.558125 190.390472) scale(0.1 -0.1)">
       <defs>
        <path id="DejaVuSans-31" d="M 794 531 
L 1825 531 
L 1825 4091 
L 703 3866 
L 703 4441 
L 1819 4666 
L 2450 4666 
L 2450 531 
L 3481 531 
L 3481 0 
L 794 0 
L 794 531 
z
" transform="scale(0.015625)"/>
       </defs>
       <use xlink:href="#DejaVuSans-31" transform="translate(0 0.684375)"/>
       <use xlink:href="#DejaVuSans-30" transform="translate(63.623047 0.684375)"/>
       <use xlink:href="#DejaVuSans-31" transform="translate(128.203125 38.965625) scale(0.7)"/>
      </g>
     </g>
    </g>
    <g id="ytick_2">
     <g id="line2d_9">
      <path d="M 41.158125 98.32759 
L 262.716949 98.32759 
" clip-path="url(#pa0536854dd)" style="fill: none; stroke: #b0b0b0; stroke-opacity: 0.25; stroke-width: 0.4; stroke-linecap: square"/>
     </g>
     <g id="line2d_10">
      <g>
       <use xlink:href="#me68d99a8f8" x="41.158125" y="98.32759" style="fill: #222222; stroke: #222222; stroke-width: 0.8"/>
      </g>
     </g>
     <g id="text_6">
      <!-- $\mathdefault{10^{2}}$ -->
      <g style="fill: #222222" transform="translate(16.558125 102.126808) scale(0.1 -0.1)">
       <defs>
        <path id="DejaVuSans-32" d="M 1228 531 
L 3431 531 
L 3431 0 
L 469 0 
L 469 531 
Q 828 903 1448 1529 
Q 2069 2156 2228 2338 
Q 2531 2678 2651 2914 
Q 2772 3150 2772 3378 
Q 2772 3750 2511 3984 
Q 2250 4219 1831 4219 
Q 1534 4219 1204 4116 
Q 875 4013 500 3803 
L 500 4441 
Q 881 4594 1212 4672 
Q 1544 4750 1819 4750 
Q 2544 4750 2975 4387 
Q 3406 4025 3406 3419 
Q 3406 3131 3298 2873 
Q 3191 2616 2906 2266 
Q 2828 2175 2409 1742 
Q 1991 1309 1228 531 
z
" transform="scale(0.015625)"/>
       </defs>
       <use xlink:href="#DejaVuSans-31" transform="translate(0 0.765625)"/>
       <use xlink:href="#DejaVuSans-30" transform="translate(63.623047 0.765625)"/>
       <use xlink:href="#DejaVuSans-32" transform="translate(128.203125 39.046875) scale(0.7)"/>
      </g>
     </g>
    </g>
    <g id="ytick_3">
     <g id="line2d_11">
      <defs>
       <path id="m35282fc62d" d="M 0 0 
L -2 0 
" style="stroke: #222222; stroke-width: 0.6"/>
      </defs>
      <g>
       <use xlink:href="#m35282fc62d" x="41.158125" y="248.284906" style="fill: #222222; stroke: #222222; stroke-width: 0.6"/>
      </g>
     </g>
    </g>
    <g id="ytick_4">
     <g id="line2d_12">
      <g>
       <use xlink:href="#m35282fc62d" x="41.158125" y="232.742446" style="fill: #222222; stroke: #222222; stroke-width: 0.6"/>
      </g>
     </g>
    </g>
    <g id="ytick_5">
     <g id="line2d_13">
      <g>
       <use xlink:href="#m35282fc62d" x="41.158125" y="221.714896" style="fill: #222222; stroke: #222222; stroke-width: 0.6"/>
      </g>
     </g>
    </g>
    <g id="ytick_6">
     <g id="line2d_14">
      <g>
       <use xlink:href="#m35282fc62d" x="41.158125" y="213.161263" style="fill: #222222; stroke: #222222; stroke-width: 0.6"/>
      </g>
     </g>
    </g>
    <g id="ytick_7">
     <g id="line2d_15">
      <g>
       <use xlink:href="#m35282fc62d" x="41.158125" y="206.172436" style="fill: #222222; stroke: #222222; stroke-width: 0.6"/>
      </g>
     </g>
    </g>
    <g id="ytick_8">
     <g id="line2d_16">
      <g>
       <use xlink:href="#m35282fc62d" x="41.158125" y="200.263467" style="fill: #222222; stroke: #222222; stroke-width: 0.6"/>
      </g>
     </g>
    </g>
    <g id="ytick_9">
     <g id="line2d_17">
      <g>
       <use xlink:href="#m35282fc62d" x="41.158125" y="195.144886" style="fill: #222222; stroke: #222222; stroke-width: 0.6"/>
      </g>
     </g>
    </g>
    <g id="ytick_10">
     <g id="line2d_18">
      <g>
       <use xlink:href="#m35282fc62d" x="41.158125" y="190.629977" style="fill: #222222; stroke: #222222; stroke-width: 0.6"/>
      </g>
     </g>
    </g>
    <g id="ytick_11">
     <g id="line2d_19">
      <g>
       <use xlink:href="#m35282fc62d" x="41.158125" y="160.021243" style="fill: #222222; stroke: #222222; stroke-width: 0.6"/>
      </g>
     </g>
    </g>
    <g id="ytick_12">
     <g id="line2d_20">
      <g>
       <use xlink:href="#m35282fc62d" x="41.158125" y="144.478783" style="fill: #222222; stroke: #222222; stroke-width: 0.6"/>
      </g>
     </g>
    </g>
    <g id="ytick_13">
     <g id="line2d_21">
      <g>
       <use xlink:href="#m35282fc62d" x="41.158125" y="133.451233" style="fill: #222222; stroke: #222222; stroke-width: 0.6"/>
      </g>
     </g>
    </g>
    <g id="ytick_14">
     <g id="line2d_22">
      <g>
       <use xlink:href="#m35282fc62d" x="41.158125" y="124.8976" style="fill: #222222; stroke: #222222; stroke-width: 0.6"/>
      </g>
     </g>
    </g>
    <g id="ytick_15">
     <g id="line2d_23">
      <g>
       <use xlink:href="#m35282fc62d" x="41.158125" y="117.908773" style="fill: #222222; stroke: #222222; stroke-width: 0.6"/>
      </g>
     </g>
    </g>
    <g id="ytick_16">
     <g id="line2d_24">
      <g>
       <use xlink:href="#m35282fc62d" x="41.158125" y="111.999804" style="fill: #222222; stroke: #222222; stroke-width: 0.6"/>
      </g>
     </g>
    </g>
    <g id="ytick_17">
     <g id="line2d_25">
      <g>
       <use xlink:href="#m35282fc62d" x="41.158125" y="106.881222" style="fill: #222222; stroke: #222222; stroke-width: 0.6"/>
      </g>
     </g>
    </g>
    <g id="ytick_18">
     <g id="line2d_26">
      <g>
       <use xlink:href="#m35282fc62d" x="41.158125" y="102.366313" style="fill: #222222; stroke: #222222; stroke-width: 0.6"/>
      </g>
     </g>
    </g>
    <g id="ytick_19">
     <g id="line2d_27">
      <g>
       <use xlink:href="#m35282fc62d" x="41.158125" y="71.75758" style="fill: #222222; stroke: #222222; stroke-width: 0.6"/>
      </g>
     </g>
    </g>
    <g id="ytick_20">
     <g id="line2d_28">
      <g>
       <use xlink:href="#m35282fc62d" x="41.158125" y="56.21512" style="fill: #222222; stroke: #222222; stroke-width: 0.6"/>
      </g>
     </g>
    </g>
    <g id="ytick_21">
     <g id="line2d_29">
      <g>
       <use xlink:href="#m35282fc62d" x="41.158125" y="45.187569" style="fill: #222222; stroke: #222222; stroke-width: 0.6"/>
      </g>
     </g>
    </g>
    <g id="text_7">
     <!-- $r_{\rm eff}(G)$ -->
     <g style="fill: #222222" transform="translate(10.478438 168.68) rotate(-90) scale(0.1 -0.1)">
      <defs>
       <path id="DejaVuSans-Oblique-72" d="M 2853 2969 
Q 2766 3016 2653 3041 
Q 2541 3066 2413 3066 
Q 1953 3066 1609 2717 
Q 1266 2369 1153 1784 
L 800 0 
L 225 0 
L 909 3500 
L 1484 3500 
L 1375 2956 
Q 1603 3259 1920 3421 
Q 2238 3584 2597 3584 
Q 2691 3584 2781 3573 
Q 2872 3563 2963 3538 
L 2853 2969 
z
" transform="scale(0.015625)"/>
       <path id="DejaVuSans-65" d="M 3597 1894 
L 3597 1613 
L 953 1613 
Q 991 1019 1311 708 
Q 1631 397 2203 397 
Q 2534 397 2845 478 
Q 3156 559 3463 722 
L 3463 178 
Q 3153 47 2828 -22 
Q 2503 -91 2169 -91 
Q 1331 -91 842 396 
Q 353 884 353 1716 
Q 353 2575 817 3079 
Q 1281 3584 2069 3584 
Q 2775 3584 3186 3129 
Q 3597 2675 3597 1894 
z
M 3022 2063 
Q 3016 2534 2758 2815 
Q 2500 3097 2075 3097 
Q 1594 3097 1305 2825 
Q 1016 2553 972 2059 
L 3022 2063 
z
" transform="scale(0.015625)"/>
       <path id="DejaVuSans-66" d="M 2375 4863 
L 2375 4384 
L 1825 4384 
Q 1516 4384 1395 4259 
Q 1275 4134 1275 3809 
L 1275 3500 
L 2222 3500 
L 2222 3053 
L 1275 3053 
L 1275 0 
L 697 0 
L 697 3053 
L 147 3053 
L 147 3500 
L 697 3500 
L 697 3744 
Q 697 4328 969 4595 
Q 1241 4863 1831 4863 
L 2375 4863 
z
" transform="scale(0.015625)"/>
       <path id="DejaVuSans-28" d="M 1984 4856 
Q 1566 4138 1362 3434 
Q 1159 2731 1159 2009 
Q 1159 1288 1364 580 
Q 1569 -128 1984 -844 
L 1484 -844 
Q 1016 -109 783 600 
Q 550 1309 550 2009 
Q 550 2706 781 3412 
Q 1013 4119 1484 4856 
L 1984 4856 
z
" transform="scale(0.015625)"/>
       <path id="DejaVuSans-Oblique-47" d="M 3494 697 
L 3738 1919 
L 2700 1919 
L 2797 2438 
L 4453 2438 
L 4050 384 
Q 3634 156 3143 32 
Q 2653 -91 2156 -91 
Q 1278 -91 783 396 
Q 288 884 288 1753 
Q 288 2475 589 3126 
Q 891 3778 1422 4213 
Q 1756 4484 2153 4617 
Q 2550 4750 3034 4750 
Q 3472 4750 3873 4639 
Q 4275 4528 4641 4306 
L 4513 3634 
Q 4231 3928 3853 4083 
Q 3475 4238 3047 4238 
Q 2550 4238 2172 4048 
Q 1794 3859 1497 3463 
Q 1244 3125 1098 2667 
Q 953 2209 953 1734 
Q 953 1081 1287 751 
Q 1622 422 2284 422 
Q 2616 422 2925 492 
Q 3234 563 3494 697 
z
" transform="scale(0.015625)"/>
       <path id="DejaVuSans-29" d="M 513 4856 
L 1013 4856 
Q 1481 4119 1714 3412 
Q 1947 2706 1947 2009 
Q 1947 1309 1714 600 
Q 1481 -109 1013 -844 
L 513 -844 
Q 928 -128 1133 580 
Q 1338 1288 1338 2009 
Q 1338 2731 1133 3434 
Q 928 4138 513 4856 
z
" transform="scale(0.015625)"/>
      </defs>
      <use xlink:href="#DejaVuSans-Oblique-72" transform="translate(0 0.125)"/>
      <use xlink:href="#DejaVuSans-65" transform="translate(41.113281 -16.28125) scale(0.7)"/>
      <use xlink:href="#DejaVuSans-66" transform="translate(84.179688 -16.28125) scale(0.7)"/>
      <use xlink:href="#DejaVuSans-66" transform="translate(108.823242 -16.28125) scale(0.7)"/>
      <use xlink:href="#DejaVuSans-28" transform="translate(136.201172 0.125)"/>
      <use xlink:href="#DejaVuSans-Oblique-47" transform="translate(175.214844 0.125)"/>
      <use xlink:href="#DejaVuSans-29" transform="translate(252.705078 0.125)"/>
     </g>
    </g>
   </g>
   <g id="line2d_30">
    <path d="M 51.228981 169.528511 
L 101.583259 186.665774 
L 126.760398 203.100999 
L 151.937537 222.334445 
L 177.114676 237.744717 
L 202.291815 247.538786 
L 252.646093 254.417529 
" clip-path="url(#pa0536854dd)" style="fill: none; stroke: #1f77b4; stroke-width: 1.8; stroke-linecap: square"/>
    <defs>
     <path id="m32c423e4fa" d="M 0 2.5 
C 0.663008 2.5 1.29895 2.236584 1.767767 1.767767 
C 2.236584 1.29895 2.5 0.663008 2.5 0 
C 2.5 -0.663008 2.236584 -1.29895 1.767767 -1.767767 
C 1.29895 -2.236584 0.663008 -2.5 0 -2.5 
C -0.663008 -2.5 -1.29895 -2.236584 -1.767767 -1.767767 
C -2.236584 -1.29895 -2.5 -0.663008 -2.5 0 
C -2.5 0.663008 -2.236584 1.29895 -1.767767 1.767767 
C -1.29895 2.236584 -0.663008 2.5 0 2.5 
z
" style="stroke: #1f77b4"/>
    </defs>
    <g clip-path="url(#pa0536854dd)">
     <use xlink:href="#m32c423e4fa" x="51.228981" y="169.528511" style="fill: #1f77b4; stroke: #1f77b4"/>
     <use xlink:href="#m32c423e4fa" x="101.583259" y="186.665774" style="fill: #1f77b4; stroke: #1f77b4"/>
     <use xlink:href="#m32c423e4fa" x="126.760398" y="203.100999" style="fill: #1f77b4; stroke: #1f77b4"/>
     <use xlink:href="#m32c423e4fa" x="151.937537" y="222.334445" style="fill: #1f77b4; stroke: #1f77b4"/>
     <use xlink:href="#m32c423e4fa" x="177.114676" y="237.744717" style="fill: #1f77b4; stroke: #1f77b4"/>
     <use xlink:href="#m32c423e4fa" x="202.291815" y="247.538786" style="fill: #1f77b4; stroke: #1f77b4"/>
     <use xlink:href="#m32c423e4fa" x="252.646093" y="254.417529" style="fill: #1f77b4; stroke: #1f77b4"/>
    </g>
   </g>
   <g id="line2d_31">
    <path d="M 51.228981 106.879881 
L 101.583259 115.331242 
L 126.760398 125.132037 
L 151.937537 141.270817 
L 177.114676 159.953215 
L 202.291815 179.536605 
L 252.646093 204.518046 
" clip-path="url(#pa0536854dd)" style="fill: none; stroke: #d62728; stroke-width: 1.8; stroke-linecap: square"/>
    <defs>
     <path id="mc46608aa08" d="M 0 2.5 
C 0.663008 2.5 1.29895 2.236584 1.767767 1.767767 
C 2.236584 1.29895 2.5 0.663008 2.5 0 
C 2.5 -0.663008 2.236584 -1.29895 1.767767 -1.767767 
C 1.29895 -2.236584 0.663008 -2.5 0 -2.5 
C -0.663008 -2.5 -1.29895 -2.236584 -1.767767 -1.767767 
C -2.236584 -1.29895 -2.5 -0.663008 -2.5 0 
C -2.5 0.663008 -2.236584 1.29895 -1.767767 1.767767 
C -1.29895 2.236584 -0.663008 2.5 0 2.5 
z
" style="stroke: #d62728"/>
    </defs>
    <g clip-path="url(#pa0536854dd)">
     <use xlink:href="#mc46608aa08" x="51.228981" y="106.879881" style="fill: #d62728; stroke: #d62728"/>
     <use xlink:href="#mc46608aa08" x="101.583259" y="115.331242" style="fill: #d62728; stroke: #d62728"/>
     <use xlink:href="#mc46608aa08" x="126.760398" y="125.132037" style="fill: #d62728; stroke: #d62728"/>
     <use xlink:href="#mc46608aa08" x="151.937537" y="141.270817" style="fill: #d62728; stroke: #d62728"/>
     <use xlink:href="#mc46608aa08" x="177.114676" y="159.953215" style="fill: #d62728; stroke: #d62728"/>
     <use xlink:href="#mc46608aa08" x="202.291815" y="179.536605" style="fill: #d62728; stroke: #d62728"/>
     <use xlink:href="#mc46608aa08" x="252.646093" y="204.518046" style="fill: #d62728; stroke: #d62728"/>
    </g>
   </g>
   <g id="line2d_32">
    <path d="M 51.228981 53.288087 
L 101.583259 59.522699 
L 126.760398 68.90172 
L 151.937537 75.6578 
L 177.114676 87.701872 
L 202.291815 97.571306 
L 252.646093 112.834776 
" clip-path="url(#pa0536854dd)" style="fill: none; stroke: #2ca02c; stroke-width: 1.8; stroke-linecap: square"/>
    <defs>
     <path id="m119536cd57" d="M 0 2.5 
C 0.663008 2.5 1.29895 2.236584 1.767767 1.767767 
C 2.236584 1.29895 2.5 0.663008 2.5 0 
C 2.5 -0.663008 2.236584 -1.29895 1.767767 -1.767767 
C 1.29895 -2.236584 0.663008 -2.5 0 -2.5 
C -0.663008 -2.5 -1.29895 -2.236584 -1.767767 -1.767767 
C -2.236584 -1.29895 -2.5 -0.663008 -2.5 0 
C -2.5 0.663008 -2.236584 1.29895 -1.767767 1.767767 
C -1.29895 2.236584 -0.663008 2.5 0 2.5 
z
" style="stroke: #2ca02c"/>
    </defs>
    <g clip-path="url(#pa0536854dd)">
     <use xlink:href="#m119536cd57" x="51.228981" y="53.288087" style="fill: #2ca02c; stroke: #2ca02c"/>
     <use xlink:href="#m119536cd57" x="101.583259" y="59.522699" style="fill: #2ca02c; stroke: #2ca02c"/>
     <use xlink:href="#m119536cd57" x="126.760398" y="68.90172" style="fill: #2ca02c; stroke: #2ca02c"/>
     <use xlink:href="#m119536cd57" x="151.937537" y="75.6578" style="fill: #2ca02c; stroke: #2ca02c"/>
     <use xlink:href="#m119536cd57" x="177.114676" y="87.701872" style="fill: #2ca02c; stroke: #2ca02c"/>
     <use xlink:href="#m119536cd57" x="202.291815" y="97.571306" style="fill: #2ca02c; stroke: #2ca02c"/>
     <use xlink:href="#m119536cd57" x="252.646093" y="112.834776" style="fill: #2ca02c; stroke: #2ca02c"/>
    </g>
   </g>
   <g id="line2d_33">
    <path d="M 152.802112 264.96 
L 152.802112 43.2 
" clip-path="url(#pa0536854dd)" style="fill: none; stroke-dasharray: 2.96,1.28; stroke-dashoffset: 0; stroke: #888888; stroke-width: 0.8"/>
   </g>
   <g id="patch_3">
    <path d="M 41.158125 264.96 
L 41.158125 43.2 
" style="fill: none; stroke: #222222; stroke-width: 0.8; stroke-linejoin: miter; stroke-linecap: square"/>
   </g>
   <g id="patch_4">
    <path d="M 41.158125 264.96 
L 262.716949 264.96 
" style="fill: none; stroke: #222222; stroke-width: 0.8; stroke-linejoin: miter; stroke-linecap: square"/>
   </g>
   <g id="text_8">
    <!--  $\beta_c$ -->
    <g style="fill: #888888" transform="translate(152.802112 59.545443) scale(0.08 -0.08)">
     <defs>
      <path id="DejaVuSans-20" transform="scale(0.015625)"/>
      <path id="DejaVuSans-Oblique-63" d="M 3431 3366 
L 3316 2797 
Q 3109 2947 2876 3022 
Q 2644 3097 2394 3097 
Q 2119 3097 1870 3000 
Q 1622 2903 1453 2725 
Q 1184 2453 1037 2087 
Q 891 1722 891 1331 
Q 891 859 1127 628 
Q 1363 397 1844 397 
Q 2081 397 2348 469 
Q 2616 541 2906 684 
L 2797 116 
Q 2547 13 2283 -39 
Q 2019 -91 1741 -91 
Q 1044 -91 669 257 
Q 294 606 294 1253 
Q 294 1797 489 2255 
Q 684 2713 1069 3078 
Q 1331 3328 1684 3456 
Q 2038 3584 2456 3584 
Q 2700 3584 2940 3529 
Q 3181 3475 3431 3366 
z
" transform="scale(0.015625)"/>
     </defs>
     <use xlink:href="#DejaVuSans-20" transform="translate(0 0.390625)"/>
     <use xlink:href="#DejaVuSans-Oblique-3b2" transform="translate(31.787109 0.390625)"/>
     <use xlink:href="#DejaVuSans-Oblique-63" transform="translate(95.605469 -16.015625) scale(0.7)"/>
    </g>
   </g>
   <g id="legend_1">
    <g id="text_9">
     <!-- size -->
     <g transform="translate(217.855542 57.308672) scale(0.085 -0.085)">
      <defs>
       <path id="DejaVuSans-73" d="M 2834 3397 
L 2834 2853 
Q 2591 2978 2328 3040 
Q 2066 3103 1784 3103 
Q 1356 3103 1142 2972 
Q 928 2841 928 2578 
Q 928 2378 1081 2264 
Q 1234 2150 1697 2047 
L 1894 2003 
Q 2506 1872 2764 1633 
Q 3022 1394 3022 966 
Q 3022 478 2636 193 
Q 2250 -91 1575 -91 
Q 1294 -91 989 -36 
Q 684 19 347 128 
L 347 722 
Q 666 556 975 473 
Q 1284 391 1588 391 
Q 1994 391 2212 530 
Q 2431 669 2431 922 
Q 2431 1156 2273 1281 
Q 2116 1406 1581 1522 
L 1381 1569 
Q 847 1681 609 1914 
Q 372 2147 372 2553 
Q 372 3047 722 3315 
Q 1072 3584 1716 3584 
Q 2034 3584 2315 3537 
Q 2597 3491 2834 3397 
z
" transform="scale(0.015625)"/>
       <path id="DejaVuSans-69" d="M 603 3500 
L 1178 3500 
L 1178 0 
L 603 0 
L 603 3500 
z
M 603 4863 
L 1178 4863 
L 1178 4134 
L 603 4134 
L 603 4863 
z
" transform="scale(0.015625)"/>
       <path id="DejaVuSans-7a" d="M 353 3500 
L 3084 3500 
L 3084 2975 
L 922 459 
L 3084 459 
L 3084 0 
L 275 0 
L 275 525 
L 2438 3041 
L 353 3041 
L 353 3500 
z
" transform="scale(0.015625)"/>
      </defs>
      <use xlink:href="#DejaVuSans-73"/>
      <use xlink:href="#DejaVuSans-69" transform="translate(52.099609 0)"/>
      <use xlink:href="#DejaVuSans-7a" transform="translate(79.882812 0)"/>
      <use xlink:href="#DejaVuSans-65" transform="translate(132.373047 0)"/>
     </g>
    </g>
    <g id="line2d_34">
     <path d="M 197.124839 66.810078 
L 205.624839 66.810078 
L 214.124839 66.810078 
" style="fill: none; stroke: #1f77b4; stroke-width: 1.8; stroke-linecap: square"/>
     <g>
      <use xlink:href="#m32c423e4fa" x="205.624839" y="66.810078" style="fill: #1f77b4; stroke: #1f77b4"/>
     </g>
    </g>
    <g id="text_10">
     <!-- n=64 -->
     <g transform="translate(220.924839 69.785078) scale(0.085 -0.085)">
      <defs>
       <path id="DejaVuSans-6e" d="M 3513 2113 
L 3513 0 
L 2938 0 
L 2938 2094 
Q 2938 2591 2744 2837 
Q 2550 3084 2163 3084 
Q 1697 3084 1428 2787 
Q 1159 2491 1159 1978 
L 1159 0 
L 581 0 
L 581 3500 
L 1159 3500 
L 1159 2956 
Q 1366 3272 1645 3428 
Q 1925 3584 2291 3584 
Q 2894 3584 3203 3211 
Q 3513 2838 3513 2113 
z
" transform="scale(0.015625)"/>
       <path id="DejaVuSans-3d" d="M 678 2906 
L 4684 2906 
L 4684 2381 
L 678 2381 
L 678 2906 
z
M 678 1631 
L 4684 1631 
L 4684 1100 
L 678 1100 
L 678 1631 
z
" transform="scale(0.015625)"/>
       <path id="DejaVuSans-36" d="M 2113 2584 
Q 1688 2584 1439 2293 
Q 1191 2003 1191 1497 
Q 1191 994 1439 701 
Q 1688 409 2113 409 
Q 2538 409 2786 701 
Q 3034 994 3034 1497 
Q 3034 2003 2786 2293 
Q 2538 2584 2113 2584 
z
M 3366 4563 
L 3366 3988 
Q 3128 4100 2886 4159 
Q 2644 4219 2406 4219 
Q 1781 4219 1451 3797 
Q 1122 3375 1075 2522 
Q 1259 2794 1537 2939 
Q 1816 3084 2150 3084 
Q 2853 3084 3261 2657 
Q 3669 2231 3669 1497 
Q 3669 778 3244 343 
Q 2819 -91 2113 -91 
Q 1303 -91 875 529 
Q 447 1150 447 2328 
Q 447 3434 972 4092 
Q 1497 4750 2381 4750 
Q 2619 4750 2861 4703 
Q 3103 4656 3366 4563 
z
" transform="scale(0.015625)"/>
      </defs>
      <use xlink:href="#DejaVuSans-6e"/>
      <use xlink:href="#DejaVuSans-3d" transform="translate(63.378906 0)"/>
      <use xlink:href="#DejaVuSans-36" transform="translate(147.167969 0)"/>
      <use xlink:href="#DejaVuSans-34" transform="translate(210.791016 0)"/>
     </g>
    </g>
    <g id="line2d_35">
     <path d="M 197.124839 79.286484 
L 205.624839 79.286484 
L 214.124839 79.286484 
" style="fill: none; stroke: #d62728; stroke-width: 1.8; stroke-linecap: square"/>
     <g>
      <use xlink:href="#mc46608aa08" x="205.624839" y="79.286484" style="fill: #d62728; stroke: #d62728"/>
     </g>
    </g>
    <g id="text_11">
     <!-- n=256 -->
     <g transform="translate(220.924839 82.261484) scale(0.085 -0.085)">
      <use xlink:href="#DejaVuSans-6e"/>
      <use xlink:href="#DejaVuSans-3d" transform="translate(63.378906 0)"/>
      <use xlink:href="#DejaVuSans-32" transform="translate(147.167969 0)"/>
      <use xlink:href="#DejaVuSans-35" transform="translate(210.791016 0)"/>
      <use xlink:href="#DejaVuSans-36" transform="translate(274.414062 0)"/>
     </g>
    </g>
    <g id="line2d_36">
     <path d="M 197.124839 91.762891 
L 205.624839 91.762891 
L 214.124839 91.762891 
" style="fill: none; stroke: #2ca02c; stroke-width: 1.8; stroke-linecap: square"/>
     <g>
      <use xlink:href="#m119536cd57" x="205.624839" y="91.762891" style="fill: #2ca02c; stroke: #2ca02c"/>
     </g>
    </g>
    <g id="text_12">
     <!-- n=1024 -->
     <g transform="translate(220.924839 94.737891) scale(0.085 -0.085)">
      <use xlink:href="#DejaVuSans-6e"/>
      <use xlink:href="#DejaVuSans-3d" transform="translate(63.378906 0)"/>
      <use xlink:href="#DejaVuSans-31" transform="translate(147.167969 0)"/>
      <use xlink:href="#DejaVuSans-30" transform="translate(210.791016 0)"/>
      <use xlink:href="#DejaVuSans-32" transform="translate(274.414062 0)"/>
      <use xlink:href="#DejaVuSans-34" transform="translate(338.037109 0)"/>
     </g>
    </g>
   </g>
  </g>
  <g id="axes_2">
   <g id="patch_5">
    <path d="M 307.028713 264.96 
L 528.587537 264.96 
L 528.587537 43.2 
L 307.028713 43.2 
z
" style="fill: #ffffff"/>
   </g>
   <g id="FillBetweenPolyCollection_4">
    <path d="M 317.099569 251.319638 
L 317.099569 253.100815 
L 367.453847 200.421817 
L 392.630986 168.812652 
L 417.808125 137.55681 
L 442.985264 110.514185 
L 468.162403 86.508973 
L 518.516681 53.548915 
L 518.516681 53.28 
L 518.516681 53.28 
L 468.162403 85.670201 
L 442.985264 108.024265 
L 417.808125 136.802762 
L 392.630986 167.014043 
L 367.453847 198.69715 
L 317.099569 251.319638 
z
" clip-path="url(#pb7c60b6c0a)" style="fill: #1f77b4; fill-opacity: 0.18"/>
   </g>
   <g id="FillBetweenPolyCollection_5">
    <path d="M 317.099569 252.958359 
L 317.099569 253.372913 
L 367.453847 208.045743 
L 392.630986 180.704919 
L 417.808125 150.378107 
L 442.985264 121.124715 
L 468.162403 96.052551 
L 518.516681 67.833274 
L 518.516681 62.89947 
L 518.516681 62.89947 
L 468.162403 95.453432 
L 442.985264 119.918819 
L 417.808125 149.482474 
L 392.630986 179.32689 
L 367.453847 207.509163 
L 317.099569 252.958359 
z
" clip-path="url(#pb7c60b6c0a)" style="fill: #d62728; fill-opacity: 0.18"/>
   </g>
   <g id="FillBetweenPolyCollection_6">
    <path d="M 317.099569 254.074769 
L 317.099569 254.88 
L 367.453847 214.202469 
L 392.630986 195.373593 
L 417.808125 162.4963 
L 442.985264 141.707597 
L 468.162403 123.099621 
L 518.516681 95.025964 
L 518.516681 90.153607 
L 518.516681 90.153607 
L 468.162403 121.219902 
L 442.985264 136.421714 
L 417.808125 160.962887 
L 392.630986 184.989609 
L 367.453847 210.565051 
L 317.099569 254.074769 
z
" clip-path="url(#pb7c60b6c0a)" style="fill: #2ca02c; fill-opacity: 0.18"/>
   </g>
   <g id="matplotlib.axis_3">
    <g id="xtick_4">
     <g id="line2d_37">
      <path d="M 367.453847 264.96 
L 367.453847 43.2 
" clip-path="url(#pb7c60b6c0a)" style="fill: none; stroke: #b0b0b0; stroke-opacity: 0.25; stroke-width: 0.4; stroke-linecap: square"/>
     </g>
     <g id="line2d_38">
      <g>
       <use xlink:href="#m742c357c56" x="367.453847" y="264.96" style="fill: #222222; stroke: #222222; stroke-width: 0.8"/>
      </g>
     </g>
     <g id="text_13">
      <!-- 0.40 -->
      <g style="fill: #222222" transform="translate(356.321034 279.558438) scale(0.1 -0.1)">
       <use xlink:href="#DejaVuSans-30"/>
       <use xlink:href="#DejaVuSans-2e" transform="translate(63.623047 0)"/>
       <use xlink:href="#DejaVuSans-34" transform="translate(95.410156 0)"/>
       <use xlink:href="#DejaVuSans-30" transform="translate(159.033203 0)"/>
      </g>
     </g>
    </g>
    <g id="xtick_5">
     <g id="line2d_39">
      <path d="M 430.396695 264.96 
L 430.396695 43.2 
" clip-path="url(#pb7c60b6c0a)" style="fill: none; stroke: #b0b0b0; stroke-opacity: 0.25; stroke-width: 0.4; stroke-linecap: square"/>
     </g>
     <g id="line2d_40">
      <g>
       <use xlink:href="#m742c357c56" x="430.396695" y="264.96" style="fill: #222222; stroke: #222222; stroke-width: 0.8"/>
      </g>
     </g>
     <g id="text_14">
      <!-- 0.45 -->
      <g style="fill: #222222" transform="translate(419.263882 279.558438) scale(0.1 -0.1)">
       <use xlink:href="#DejaVuSans-30"/>
       <use xlink:href="#DejaVuSans-2e" transform="translate(63.623047 0)"/>
       <use xlink:href="#DejaVuSans-34" transform="translate(95.410156 0)"/>
       <use xlink:href="#DejaVuSans-35" transform="translate(159.033203 0)"/>
      </g>
     </g>
    </g>
    <g id="xtick_6">
     <g id="line2d_41">
      <path d="M 493.339542 264.96 
L 493.339542 43.2 
" clip-path="url(#pb7c60b6c0a)" style="fill: none; stroke: #b0b0b0; stroke-opacity: 0.25; stroke-width: 0.4; stroke-linecap: square"/>
     </g>
     <g id="line2d_42">
      <g>
       <use xlink:href="#m742c357c56" x="493.339542" y="264.96" style="fill: #222222; stroke: #222222; stroke-width: 0.8"/>
      </g>
     </g>
     <g id="text_15">
      <!-- 0.50 -->
      <g style="fill: #222222" transform="translate(482.20673 279.558438) scale(0.1 -0.1)">
       <use xlink:href="#DejaVuSans-30"/>
       <use xlink:href="#DejaVuSans-2e" transform="translate(63.623047 0)"/>
       <use xlink:href="#DejaVuSans-35" transform="translate(95.410156 0)"/>
       <use xlink:href="#DejaVuSans-30" transform="translate(159.033203 0)"/>
      </g>
     </g>
    </g>
    <g id="text_16">
     <!-- $\beta$ -->
     <g style="fill: #222222" transform="translate(414.608125 293.338125) scale(0.1 -0.1)">
      <use xlink:href="#DejaVuSans-Oblique-3b2" transform="translate(0 0.390625)"/>
     </g>
    </g>
   </g>
   <g id="matplotlib.axis_4">
    <g id="ytick_22">
     <g id="line2d_43">
      <path d="M 307.028713 261.574695 
L 528.587537 261.574695 
" clip-path="url(#pb7c60b6c0a)" style="fill: none; stroke: #b0b0b0; stroke-opacity: 0.25; stroke-width: 0.4; stroke-linecap: square"/>
     </g>
     <g id="line2d_44">
      <g>
       <use xlink:href="#me68d99a8f8" x="307.028713" y="261.574695" style="fill: #222222; stroke: #222222; stroke-width: 0.8"/>
      </g>
     </g>
     <g id="text_17">
      <!-- 0.4 -->
      <g style="fill: #222222" transform="translate(284.125588 265.373914) scale(0.1 -0.1)">
       <use xlink:href="#DejaVuSans-30"/>
       <use xlink:href="#DejaVuSans-2e" transform="translate(63.623047 0)"/>
       <use xlink:href="#DejaVuSans-34" transform="translate(95.410156 0)"/>
      </g>
     </g>
    </g>
    <g id="ytick_23">
     <g id="line2d_45">
      <path d="M 307.028713 217.539474 
L 528.587537 217.539474 
" clip-path="url(#pb7c60b6c0a)" style="fill: none; stroke: #b0b0b0; stroke-opacity: 0.25; stroke-width: 0.4; stroke-linecap: square"/>
     </g>
     <g id="line2d_46">
      <g>
       <use xlink:href="#me68d99a8f8" x="307.028713" y="217.539474" style="fill: #222222; stroke: #222222; stroke-width: 0.8"/>
      </g>
     </g>
     <g id="text_18">
      <!-- 0.5 -->
      <g style="fill: #222222" transform="translate(284.125588 221.338693) scale(0.1 -0.1)">
       <use xlink:href="#DejaVuSans-30"/>
       <use xlink:href="#DejaVuSans-2e" transform="translate(63.623047 0)"/>
       <use xlink:href="#DejaVuSans-35" transform="translate(95.410156 0)"/>
      </g>
     </g>
    </g>
    <g id="ytick_24">
     <g id="line2d_47">
      <path d="M 307.028713 173.504253 
L 528.587537 173.504253 
" clip-path="url(#pb7c60b6c0a)" style="fill: none; stroke: #b0b0b0; stroke-opacity: 0.25; stroke-width: 0.4; stroke-linecap: square"/>
     </g>
     <g id="line2d_48">
      <g>
       <use xlink:href="#me68d99a8f8" x="307.028713" y="173.504253" style="fill: #222222; stroke: #222222; stroke-width: 0.8"/>
      </g>
     </g>
     <g id="text_19">
      <!-- 0.6 -->
      <g style="fill: #222222" transform="translate(284.125588 177.303471) scale(0.1 -0.1)">
       <use xlink:href="#DejaVuSans-30"/>
       <use xlink:href="#DejaVuSans-2e" transform="translate(63.623047 0)"/>
       <use xlink:href="#DejaVuSans-36" transform="translate(95.410156 0)"/>
      </g>
     </g>
    </g>
    <g id="ytick_25">
     <g id="line2d_49">
      <path d="M 307.028713 129.469031 
L 528.587537 129.469031 
" clip-path="url(#pb7c60b6c0a)" style="fill: none; stroke: #b0b0b0; stroke-opacity: 0.25; stroke-width: 0.4; stroke-linecap: square"/>
     </g>
     <g id="line2d_50">
      <g>
       <use xlink:href="#me68d99a8f8" x="307.028713" y="129.469031" style="fill: #222222; stroke: #222222; stroke-width: 0.8"/>
      </g>
     </g>
     <g id="text_20">
      <!-- 0.7 -->
      <g style="fill: #222222" transform="translate(284.125588 133.26825) scale(0.1 -0.1)">
       <defs>
        <path id="DejaVuSans-37" d="M 525 4666 
L 3525 4666 
L 3525 4397 
L 1831 0 
L 1172 0 
L 2766 4134 
L 525 4134 
L 525 4666 
z
" transform="scale(0.015625)"/>
       </defs>
       <use xlink:href="#DejaVuSans-30"/>
       <use xlink:href="#DejaVuSans-2e" transform="translate(63.623047 0)"/>
       <use xlink:href="#DejaVuSans-37" transform="translate(95.410156 0)"/>
      </g>
     </g>
    </g>
    <g id="ytick_26">
     <g id="line2d_51">
      <path d="M 307.028713 85.43381 
L 528.587537 85.43381 
" clip-path="url(#pb7c60b6c0a)" style="fill: none; stroke: #b0b0b0; stroke-opacity: 0.25; stroke-width: 0.4; stroke-linecap: square"/>
     </g>
     <g id="line2d_52">
      <g>
       <use xlink:href="#me68d99a8f8" x="307.028713" y="85.43381" style="fill: #222222; stroke: #222222; stroke-width: 0.8"/>
      </g>
     </g>
     <g id="text_21">
      <!-- 0.8 -->
      <g style="fill: #222222" transform="translate(284.125588 89.233029) scale(0.1 -0.1)">
       <defs>
        <path id="DejaVuSans-38" d="M 2034 2216 
Q 1584 2216 1326 1975 
Q 1069 1734 1069 1313 
Q 1069 891 1326 650 
Q 1584 409 2034 409 
Q 2484 409 2743 651 
Q 3003 894 3003 1313 
Q 3003 1734 2745 1975 
Q 2488 2216 2034 2216 
z
M 1403 2484 
Q 997 2584 770 2862 
Q 544 3141 544 3541 
Q 544 4100 942 4425 
Q 1341 4750 2034 4750 
Q 2731 4750 3128 4425 
Q 3525 4100 3525 3541 
Q 3525 3141 3298 2862 
Q 3072 2584 2669 2484 
Q 3125 2378 3379 2068 
Q 3634 1759 3634 1313 
Q 3634 634 3220 271 
Q 2806 -91 2034 -91 
Q 1263 -91 848 271 
Q 434 634 434 1313 
Q 434 1759 690 2068 
Q 947 2378 1403 2484 
z
M 1172 3481 
Q 1172 3119 1398 2916 
Q 1625 2713 2034 2713 
Q 2441 2713 2670 2916 
Q 2900 3119 2900 3481 
Q 2900 3844 2670 4047 
Q 2441 4250 2034 4250 
Q 1625 4250 1398 4047 
Q 1172 3844 1172 3481 
z
" transform="scale(0.015625)"/>
       </defs>
       <use xlink:href="#DejaVuSans-30"/>
       <use xlink:href="#DejaVuSans-2e" transform="translate(63.623047 0)"/>
       <use xlink:href="#DejaVuSans-38" transform="translate(95.410156 0)"/>
      </g>
     </g>
    </g>
    <g id="text_22">
     <!-- $\Delta_{\rm baseline}$ -->
     <g style="fill: #222222" transform="translate(278.045901 172.38) rotate(-90) scale(0.1 -0.1)">
      <defs>
       <path id="DejaVuSans-394" d="M 2188 4044 
L 906 525 
L 3472 525 
L 2188 4044 
z
M 50 0 
L 1831 4666 
L 2547 4666 
L 4325 0 
L 50 0 
z
" transform="scale(0.015625)"/>
       <path id="DejaVuSans-62" d="M 3116 1747 
Q 3116 2381 2855 2742 
Q 2594 3103 2138 3103 
Q 1681 3103 1420 2742 
Q 1159 2381 1159 1747 
Q 1159 1113 1420 752 
Q 1681 391 2138 391 
Q 2594 391 2855 752 
Q 3116 1113 3116 1747 
z
M 1159 2969 
Q 1341 3281 1617 3432 
Q 1894 3584 2278 3584 
Q 2916 3584 3314 3078 
Q 3713 2572 3713 1747 
Q 3713 922 3314 415 
Q 2916 -91 2278 -91 
Q 1894 -91 1617 61 
Q 1341 213 1159 525 
L 1159 0 
L 581 0 
L 581 4863 
L 1159 4863 
L 1159 2969 
z
" transform="scale(0.015625)"/>
       <path id="DejaVuSans-61" d="M 2194 1759 
Q 1497 1759 1228 1600 
Q 959 1441 959 1056 
Q 959 750 1161 570 
Q 1363 391 1709 391 
Q 2188 391 2477 730 
Q 2766 1069 2766 1631 
L 2766 1759 
L 2194 1759 
z
M 3341 1997 
L 3341 0 
L 2766 0 
L 2766 531 
Q 2569 213 2275 61 
Q 1981 -91 1556 -91 
Q 1019 -91 701 211 
Q 384 513 384 1019 
Q 384 1609 779 1909 
Q 1175 2209 1959 2209 
L 2766 2209 
L 2766 2266 
Q 2766 2663 2505 2880 
Q 2244 3097 1772 3097 
Q 1472 3097 1187 3025 
Q 903 2953 641 2809 
L 641 3341 
Q 956 3463 1253 3523 
Q 1550 3584 1831 3584 
Q 2591 3584 2966 3190 
Q 3341 2797 3341 1997 
z
" transform="scale(0.015625)"/>
       <path id="DejaVuSans-6c" d="M 603 4863 
L 1178 4863 
L 1178 0 
L 603 0 
L 603 4863 
z
" transform="scale(0.015625)"/>
      </defs>
      <use xlink:href="#DejaVuSans-394" transform="translate(0 0.09375)"/>
      <use xlink:href="#DejaVuSans-62" transform="translate(69.365234 -16.3125) scale(0.7)"/>
      <use xlink:href="#DejaVuSans-61" transform="translate(113.798828 -16.3125) scale(0.7)"/>
      <use xlink:href="#DejaVuSans-73" transform="translate(156.694336 -16.3125) scale(0.7)"/>
      <use xlink:href="#DejaVuSans-65" transform="translate(193.164062 -16.3125) scale(0.7)"/>
      <use xlink:href="#DejaVuSans-6c" transform="translate(236.230469 -16.3125) scale(0.7)"/>
      <use xlink:href="#DejaVuSans-69" transform="translate(255.678711 -16.3125) scale(0.7)"/>
      <use xlink:href="#DejaVuSans-6e" transform="translate(275.126953 -16.3125) scale(0.7)"/>
      <use xlink:href="#DejaVuSans-65" transform="translate(319.492188 -16.3125) scale(0.7)"/>
     </g>
    </g>
   </g>
   <g id="line2d_53">
    <path d="M 317.099569 252.210227 
L 367.453847 199.559483 
L 392.630986 167.913348 
L 417.808125 137.179786 
L 442.985264 109.269225 
L 468.162403 86.089587 
L 518.516681 53.414458 
" clip-path="url(#pb7c60b6c0a)" style="fill: none; stroke: #1f77b4; stroke-width: 1.8; stroke-linecap: square"/>
    <g clip-path="url(#pb7c60b6c0a)">
     <use xlink:href="#m32c423e4fa" x="317.099569" y="252.210227" style="fill: #1f77b4; stroke: #1f77b4"/>
     <use xlink:href="#m32c423e4fa" x="367.453847" y="199.559483" style="fill: #1f77b4; stroke: #1f77b4"/>
     <use xlink:href="#m32c423e4fa" x="392.630986" y="167.913348" style="fill: #1f77b4; stroke: #1f77b4"/>
     <use xlink:href="#m32c423e4fa" x="417.808125" y="137.179786" style="fill: #1f77b4; stroke: #1f77b4"/>
     <use xlink:href="#m32c423e4fa" x="442.985264" y="109.269225" style="fill: #1f77b4; stroke: #1f77b4"/>
     <use xlink:href="#m32c423e4fa" x="468.162403" y="86.089587" style="fill: #1f77b4; stroke: #1f77b4"/>
     <use xlink:href="#m32c423e4fa" x="518.516681" y="53.414458" style="fill: #1f77b4; stroke: #1f77b4"/>
    </g>
   </g>
   <g id="line2d_54">
    <path d="M 317.099569 253.165636 
L 367.453847 207.777453 
L 392.630986 180.015905 
L 417.808125 149.930291 
L 442.985264 120.521767 
L 468.162403 95.752991 
L 518.516681 65.366372 
" clip-path="url(#pb7c60b6c0a)" style="fill: none; stroke: #d62728; stroke-width: 1.8; stroke-linecap: square"/>
    <g clip-path="url(#pb7c60b6c0a)">
     <use xlink:href="#mc46608aa08" x="317.099569" y="253.165636" style="fill: #d62728; stroke: #d62728"/>
     <use xlink:href="#mc46608aa08" x="367.453847" y="207.777453" style="fill: #d62728; stroke: #d62728"/>
     <use xlink:href="#mc46608aa08" x="392.630986" y="180.015905" style="fill: #d62728; stroke: #d62728"/>
     <use xlink:href="#mc46608aa08" x="417.808125" y="149.930291" style="fill: #d62728; stroke: #d62728"/>
     <use xlink:href="#mc46608aa08" x="442.985264" y="120.521767" style="fill: #d62728; stroke: #d62728"/>
     <use xlink:href="#mc46608aa08" x="468.162403" y="95.752991" style="fill: #d62728; stroke: #d62728"/>
     <use xlink:href="#mc46608aa08" x="518.516681" y="65.366372" style="fill: #d62728; stroke: #d62728"/>
    </g>
   </g>
   <g id="line2d_55">
    <path d="M 317.099569 254.477384 
L 367.453847 212.38376 
L 392.630986 190.181601 
L 417.808125 161.729594 
L 442.985264 139.064656 
L 468.162403 122.159762 
L 518.516681 92.589786 
" clip-path="url(#pb7c60b6c0a)" style="fill: none; stroke: #2ca02c; stroke-width: 1.8; stroke-linecap: square"/>
    <g clip-path="url(#pb7c60b6c0a)">
     <use xlink:href="#m119536cd57" x="317.099569" y="254.477384" style="fill: #2ca02c; stroke: #2ca02c"/>
     <use xlink:href="#m119536cd57" x="367.453847" y="212.38376" style="fill: #2ca02c; stroke: #2ca02c"/>
     <use xlink:href="#m119536cd57" x="392.630986" y="190.181601" style="fill: #2ca02c; stroke: #2ca02c"/>
     <use xlink:href="#m119536cd57" x="417.808125" y="161.729594" style="fill: #2ca02c; stroke: #2ca02c"/>
     <use xlink:href="#m119536cd57" x="442.985264" y="139.064656" style="fill: #2ca02c; stroke: #2ca02c"/>
     <use xlink:href="#m119536cd57" x="468.162403" y="122.159762" style="fill: #2ca02c; stroke: #2ca02c"/>
     <use xlink:href="#m119536cd57" x="518.516681" y="92.589786" style="fill: #2ca02c; stroke: #2ca02c"/>
    </g>
   </g>
   <g id="line2d_56">
    <path d="M 418.6727 264.96 
L 418.6727 43.2 
" clip-path="url(#pb7c60b6c0a)" style="fill: none; stroke-dasharray: 2.96,1.28; stroke-dashoffset: 0; stroke: #888888; stroke-width: 0.8"/>
   </g>
   <g id="patch_6">
    <path d="M 307.028713 264.96 
L 307.028713 43.2 
" style="fill: none; stroke: #222222; stroke-width: 0.8; stroke-linejoin: miter; stroke-linecap: square"/>
   </g>
   <g id="patch_7">
    <path d="M 307.028713 264.96 
L 528.587537 264.96 
" style="fill: none; stroke: #222222; stroke-width: 0.8; stroke-linejoin: miter; stroke-linecap: square"/>
   </g>
   <g id="text_23">
    <!--  $\beta_c$ -->
    <g style="fill: #888888" transform="translate(418.6727 69.085779) scale(0.08 -0.08)">
     <use xlink:href="#DejaVuSans-20" transform="translate(0 0.390625)"/>
     <use xlink:href="#DejaVuSans-Oblique-3b2" transform="translate(31.787109 0.390625)"/>
     <use xlink:href="#DejaVuSans-Oblique-63" transform="translate(95.605469 -16.015625) scale(0.7)"/>
    </g>
   </g>
  </g>
  <g id="axes_3">
   <g id="patch_8">
    <path d="M 572.899301 264.96 
L 794.458125 264.96 
L 794.458125 43.2 
L 572.899301 43.2 
z
" style="fill: #ffffff"/>
   </g>
   <g id="FillBetweenPolyCollection_7">
    <path d="M 582.970157 188.851666 
L 582.970157 188.919008 
L 633.324435 189.567606 
L 658.501574 192.252533 
L 683.678713 206.676431 
L 708.855852 214.986227 
L 734.032991 228.644911 
L 784.387269 254.88 
L 784.387269 249.250954 
L 784.387269 249.250954 
L 734.032991 221.893634 
L 708.855852 211.361969 
L 683.678713 205.024985 
L 658.501574 191.400207 
L 633.324435 189.247212 
L 582.970157 188.851666 
z
" clip-path="url(#p216a566c14)" style="fill: #1f77b4; fill-opacity: 0.18"/>
   </g>
   <g id="FillBetweenPolyCollection_8">
    <path d="M 582.970157 131.226673 
L 582.970157 131.374274 
L 633.324435 131.265622 
L 658.501574 131.228946 
L 683.678713 131.272483 
L 708.855852 121.442182 
L 734.032991 104.166447 
L 784.387269 105.472694 
L 784.387269 104.730733 
L 784.387269 104.730733 
L 734.032991 103.307142 
L 708.855852 115.31306 
L 683.678713 131.168451 
L 658.501574 131.216033 
L 633.324435 131.257073 
L 582.970157 131.226673 
z
" clip-path="url(#p216a566c14)" style="fill: #d62728; fill-opacity: 0.18"/>
   </g>
   <g id="FillBetweenPolyCollection_9">
    <path d="M 582.970157 59.359637 
L 582.970157 59.945794 
L 633.324435 59.690777 
L 658.501574 64.319246 
L 683.678713 56.604891 
L 708.855852 56.496131 
L 734.032991 56.200076 
L 784.387269 56.211461 
L 784.387269 53.58056 
L 784.387269 53.58056 
L 734.032991 56.145753 
L 708.855852 56.141522 
L 683.678713 56.443145 
L 658.501574 53.28 
L 633.324435 57.379668 
L 582.970157 59.359637 
z
" clip-path="url(#p216a566c14)" style="fill: #2ca02c; fill-opacity: 0.18"/>
   </g>
   <g id="matplotlib.axis_5">
    <g id="xtick_7">
     <g id="line2d_57">
      <path d="M 633.324435 264.96 
L 633.324435 43.2 
" clip-path="url(#p216a566c14)" style="fill: none; stroke: #b0b0b0; stroke-opacity: 0.25; stroke-width: 0.4; stroke-linecap: square"/>
     </g>
     <g id="line2d_58">
      <g>
       <use xlink:href="#m742c357c56" x="633.324435" y="264.96" style="fill: #222222; stroke: #222222; stroke-width: 0.8"/>
      </g>
     </g>
     <g id="text_24">
      <!-- 0.40 -->
      <g style="fill: #222222" transform="translate(622.191623 279.558438) scale(0.1 -0.1)">
       <use xlink:href="#DejaVuSans-30"/>
       <use xlink:href="#DejaVuSans-2e" transform="translate(63.623047 0)"/>
       <use xlink:href="#DejaVuSans-34" transform="translate(95.410156 0)"/>
       <use xlink:href="#DejaVuSans-30" transform="translate(159.033203 0)"/>
      </g>
     </g>
    </g>
    <g id="xtick_8">
     <g id="line2d_59">
      <path d="M 696.267283 264.96 
L 696.267283 43.2 
" clip-path="url(#p216a566c14)" style="fill: none; stroke: #b0b0b0; stroke-opacity: 0.25; stroke-width: 0.4; stroke-linecap: square"/>
     </g>
     <g id="line2d_60">
      <g>
       <use xlink:href="#m742c357c56" x="696.267283" y="264.96" style="fill: #222222; stroke: #222222; stroke-width: 0.8"/>
      </g>
     </g>
     <g id="text_25">
      <!-- 0.45 -->
      <g style="fill: #222222" transform="translate(685.13447 279.558438) scale(0.1 -0.1)">
       <use xlink:href="#DejaVuSans-30"/>
       <use xlink:href="#DejaVuSans-2e" transform="translate(63.623047 0)"/>
       <use xlink:href="#DejaVuSans-34" transform="translate(95.410156 0)"/>
       <use xlink:href="#DejaVuSans-35" transform="translate(159.033203 0)"/>
      </g>
     </g>
    </g>
    <g id="xtick_9">
     <g id="line2d_61">
      <path d="M 759.21013 264.96 
L 759.21013 43.2 
" clip-path="url(#p216a566c14)" style="fill: none; stroke: #b0b0b0; stroke-opacity: 0.25; stroke-width: 0.4; stroke-linecap: square"/>
     </g>
     <g id="line2d_62">
      <g>
       <use xlink:href="#m742c357c56" x="759.21013" y="264.96" style="fill: #222222; stroke: #222222; stroke-width: 0.8"/>
      </g>
     </g>
     <g id="text_26">
      <!-- 0.50 -->
      <g style="fill: #222222" transform="translate(748.077318 279.558438) scale(0.1 -0.1)">
       <use xlink:href="#DejaVuSans-30"/>
       <use xlink:href="#DejaVuSans-2e" transform="translate(63.623047 0)"/>
       <use xlink:href="#DejaVuSans-35" transform="translate(95.410156 0)"/>
       <use xlink:href="#DejaVuSans-30" transform="translate(159.033203 0)"/>
      </g>
     </g>
    </g>
    <g id="text_27">
     <!-- $\beta$ -->
     <g style="fill: #222222" transform="translate(680.478713 293.338125) scale(0.1 -0.1)">
      <use xlink:href="#DejaVuSans-Oblique-3b2" transform="translate(0 0.390625)"/>
     </g>
    </g>
   </g>
   <g id="matplotlib.axis_6">
    <g id="ytick_27">
     <g id="line2d_63">
      <path d="M 572.899301 161.076614 
L 794.458125 161.076614 
" clip-path="url(#p216a566c14)" style="fill: none; stroke: #b0b0b0; stroke-opacity: 0.25; stroke-width: 0.4; stroke-linecap: square"/>
     </g>
     <g id="line2d_64">
      <g>
       <use xlink:href="#me68d99a8f8" x="572.899301" y="161.076614" style="fill: #222222; stroke: #222222; stroke-width: 0.8"/>
      </g>
     </g>
     <g id="text_28">
      <!-- $\mathdefault{10^{1}}$ -->
      <g style="fill: #222222" transform="translate(548.299301 164.875833) scale(0.1 -0.1)">
       <use xlink:href="#DejaVuSans-31" transform="translate(0 0.684375)"/>
       <use xlink:href="#DejaVuSans-30" transform="translate(63.623047 0.684375)"/>
       <use xlink:href="#DejaVuSans-31" transform="translate(128.203125 38.965625) scale(0.7)"/>
      </g>
     </g>
    </g>
    <g id="ytick_28">
     <g id="line2d_65">
      <g>
       <use xlink:href="#m35282fc62d" x="572.899301" y="253.326926" style="fill: #222222; stroke: #222222; stroke-width: 0.6"/>
      </g>
     </g>
    </g>
    <g id="ytick_29">
     <g id="line2d_66">
      <g>
       <use xlink:href="#m35282fc62d" x="572.899301" y="230.086338" style="fill: #222222; stroke: #222222; stroke-width: 0.6"/>
      </g>
     </g>
    </g>
    <g id="ytick_30">
     <g id="line2d_67">
      <g>
       <use xlink:href="#m35282fc62d" x="572.899301" y="213.596879" style="fill: #222222; stroke: #222222; stroke-width: 0.6"/>
      </g>
     </g>
    </g>
    <g id="ytick_31">
     <g id="line2d_68">
      <g>
       <use xlink:href="#m35282fc62d" x="572.899301" y="200.806661" style="fill: #222222; stroke: #222222; stroke-width: 0.6"/>
      </g>
     </g>
    </g>
    <g id="ytick_32">
     <g id="line2d_69">
      <g>
       <use xlink:href="#m35282fc62d" x="572.899301" y="190.356292" style="fill: #222222; stroke: #222222; stroke-width: 0.6"/>
      </g>
     </g>
    </g>
    <g id="ytick_33">
     <g id="line2d_70">
      <g>
       <use xlink:href="#m35282fc62d" x="572.899301" y="181.52063" style="fill: #222222; stroke: #222222; stroke-width: 0.6"/>
      </g>
     </g>
    </g>
    <g id="ytick_34">
     <g id="line2d_71">
      <g>
       <use xlink:href="#m35282fc62d" x="572.899301" y="173.866833" style="fill: #222222; stroke: #222222; stroke-width: 0.6"/>
      </g>
     </g>
    </g>
    <g id="ytick_35">
     <g id="line2d_72">
      <g>
       <use xlink:href="#m35282fc62d" x="572.899301" y="167.115704" style="fill: #222222; stroke: #222222; stroke-width: 0.6"/>
      </g>
     </g>
    </g>
    <g id="ytick_36">
     <g id="line2d_73">
      <g>
       <use xlink:href="#m35282fc62d" x="572.899301" y="121.346568" style="fill: #222222; stroke: #222222; stroke-width: 0.6"/>
      </g>
     </g>
    </g>
    <g id="ytick_37">
     <g id="line2d_74">
      <g>
       <use xlink:href="#m35282fc62d" x="572.899301" y="98.105981" style="fill: #222222; stroke: #222222; stroke-width: 0.6"/>
      </g>
     </g>
    </g>
    <g id="ytick_38">
     <g id="line2d_75">
      <g>
       <use xlink:href="#m35282fc62d" x="572.899301" y="81.616521" style="fill: #222222; stroke: #222222; stroke-width: 0.6"/>
      </g>
     </g>
    </g>
    <g id="ytick_39">
     <g id="line2d_76">
      <g>
       <use xlink:href="#m35282fc62d" x="572.899301" y="68.826303" style="fill: #222222; stroke: #222222; stroke-width: 0.6"/>
      </g>
     </g>
    </g>
    <g id="ytick_40">
     <g id="line2d_77">
      <g>
       <use xlink:href="#m35282fc62d" x="572.899301" y="58.375934" style="fill: #222222; stroke: #222222; stroke-width: 0.6"/>
      </g>
     </g>
    </g>
    <g id="ytick_41">
     <g id="line2d_78">
      <g>
       <use xlink:href="#m35282fc62d" x="572.899301" y="49.540273" style="fill: #222222; stroke: #222222; stroke-width: 0.6"/>
      </g>
     </g>
    </g>
    <g id="text_29">
     <!-- $\mathrm{align}(G,A)\,/\,\mathrm{align}_{\rm rand}$ -->
     <g style="fill: #222222" transform="translate(542.199301 203.73) rotate(-90) scale(0.1 -0.1)">
      <defs>
       <path id="DejaVuSans-67" d="M 2906 1791 
Q 2906 2416 2648 2759 
Q 2391 3103 1925 3103 
Q 1463 3103 1205 2759 
Q 947 2416 947 1791 
Q 947 1169 1205 825 
Q 1463 481 1925 481 
Q 2391 481 2648 825 
Q 2906 1169 2906 1791 
z
M 3481 434 
Q 3481 -459 3084 -895 
Q 2688 -1331 1869 -1331 
Q 1566 -1331 1297 -1286 
Q 1028 -1241 775 -1147 
L 775 -588 
Q 1028 -725 1275 -790 
Q 1522 -856 1778 -856 
Q 2344 -856 2625 -561 
Q 2906 -266 2906 331 
L 2906 616 
Q 2728 306 2450 153 
Q 2172 0 1784 0 
Q 1141 0 747 490 
Q 353 981 353 1791 
Q 353 2603 747 3093 
Q 1141 3584 1784 3584 
Q 2172 3584 2450 3431 
Q 2728 3278 2906 2969 
L 2906 3500 
L 3481 3500 
L 3481 434 
z
" transform="scale(0.015625)"/>
       <path id="DejaVuSans-2c" d="M 750 794 
L 1409 794 
L 1409 256 
L 897 -744 
L 494 -744 
L 750 256 
L 750 794 
z
" transform="scale(0.015625)"/>
       <path id="DejaVuSans-Oblique-41" d="M 2356 4666 
L 3072 4666 
L 3938 0 
L 3278 0 
L 3084 1197 
L 984 1197 
L 325 0 
L -341 0 
L 2356 4666 
z
M 2584 4044 
L 1275 1722 
L 2988 1722 
L 2584 4044 
z
" transform="scale(0.015625)"/>
       <path id="DejaVuSans-2f" d="M 1625 4666 
L 2156 4666 
L 531 -594 
L 0 -594 
L 1625 4666 
z
" transform="scale(0.015625)"/>
       <path id="DejaVuSans-72" d="M 2631 2963 
Q 2534 3019 2420 3045 
Q 2306 3072 2169 3072 
Q 1681 3072 1420 2755 
Q 1159 2438 1159 1844 
L 1159 0 
L 581 0 
L 581 3500 
L 1159 3500 
L 1159 2956 
Q 1341 3275 1631 3429 
Q 1922 3584 2338 3584 
Q 2397 3584 2469 3576 
Q 2541 3569 2628 3553 
L 2631 2963 
z
" transform="scale(0.015625)"/>
       <path id="DejaVuSans-64" d="M 2906 2969 
L 2906 4863 
L 3481 4863 
L 3481 0 
L 2906 0 
L 2906 525 
Q 2725 213 2448 61 
Q 2172 -91 1784 -91 
Q 1150 -91 751 415 
Q 353 922 353 1747 
Q 353 2572 751 3078 
Q 1150 3584 1784 3584 
Q 2172 3584 2448 3432 
Q 2725 3281 2906 2969 
z
M 947 1747 
Q 947 1113 1208 752 
Q 1469 391 1925 391 
Q 2381 391 2643 752 
Q 2906 1113 2906 1747 
Q 2906 2381 2643 2742 
Q 2381 3103 1925 3103 
Q 1469 3103 1208 2742 
Q 947 2381 947 1747 
z
" transform="scale(0.015625)"/>
      </defs>
      <use xlink:href="#DejaVuSans-61" transform="translate(0 0.015625)"/>
      <use xlink:href="#DejaVuSans-6c" transform="translate(61.279297 0.015625)"/>
      <use xlink:href="#DejaVuSans-69" transform="translate(89.0625 0.015625)"/>
      <use xlink:href="#DejaVuSans-67" transform="translate(116.845703 0.015625)"/>
      <use xlink:href="#DejaVuSans-6e" transform="translate(180.322266 0.015625)"/>
      <use xlink:href="#DejaVuSans-28" transform="translate(243.701172 0.015625)"/>
      <use xlink:href="#DejaVuSans-Oblique-47" transform="translate(282.714844 0.015625)"/>
      <use xlink:href="#DejaVuSans-2c" transform="translate(360.205078 0.015625)"/>
      <use xlink:href="#DejaVuSans-Oblique-41" transform="translate(411.474609 0.015625)"/>
      <use xlink:href="#DejaVuSans-29" transform="translate(479.882812 0.015625)"/>
      <use xlink:href="#DejaVuSans-2f" transform="translate(535.132161 0.015625)"/>
      <use xlink:href="#DejaVuSans-61" transform="translate(585.059243 0.015625)"/>
      <use xlink:href="#DejaVuSans-6c" transform="translate(646.33854 0.015625)"/>
      <use xlink:href="#DejaVuSans-69" transform="translate(674.121743 0.015625)"/>
      <use xlink:href="#DejaVuSans-67" transform="translate(701.904946 0.015625)"/>
      <use xlink:href="#DejaVuSans-6e" transform="translate(765.381509 0.015625)"/>
      <use xlink:href="#DejaVuSans-72" transform="translate(829.717446 -16.390625) scale(0.7)"/>
      <use xlink:href="#DejaVuSans-61" transform="translate(858.496743 -16.390625) scale(0.7)"/>
      <use xlink:href="#DejaVuSans-6e" transform="translate(901.392251 -16.390625) scale(0.7)"/>
      <use xlink:href="#DejaVuSans-64" transform="translate(945.757485 -16.390625) scale(0.7)"/>
     </g>
    </g>
   </g>
   <g id="line2d_79">
    <path d="M 582.970157 188.885327 
L 633.324435 189.407185 
L 658.501574 191.824786 
L 683.678713 205.844761 
L 708.855852 213.145457 
L 734.032991 225.169929 
L 784.387269 251.996404 
" clip-path="url(#p216a566c14)" style="fill: none; stroke: #1f77b4; stroke-width: 1.8; stroke-linecap: square"/>
    <g clip-path="url(#p216a566c14)">
     <use xlink:href="#m32c423e4fa" x="582.970157" y="188.885327" style="fill: #1f77b4; stroke: #1f77b4"/>
     <use xlink:href="#m32c423e4fa" x="633.324435" y="189.407185" style="fill: #1f77b4; stroke: #1f77b4"/>
     <use xlink:href="#m32c423e4fa" x="658.501574" y="191.824786" style="fill: #1f77b4; stroke: #1f77b4"/>
     <use xlink:href="#m32c423e4fa" x="683.678713" y="205.844761" style="fill: #1f77b4; stroke: #1f77b4"/>
     <use xlink:href="#m32c423e4fa" x="708.855852" y="213.145457" style="fill: #1f77b4; stroke: #1f77b4"/>
     <use xlink:href="#m32c423e4fa" x="734.032991" y="225.169929" style="fill: #1f77b4; stroke: #1f77b4"/>
     <use xlink:href="#m32c423e4fa" x="784.387269" y="251.996404" style="fill: #1f77b4; stroke: #1f77b4"/>
    </g>
   </g>
   <g id="line2d_80">
    <path d="M 582.970157 131.300426 
L 633.324435 131.261347 
L 658.501574 131.222489 
L 683.678713 131.220443 
L 708.855852 118.295736 
L 734.032991 103.735184 
L 784.387269 105.100513 
" clip-path="url(#p216a566c14)" style="fill: none; stroke: #d62728; stroke-width: 1.8; stroke-linecap: square"/>
    <g clip-path="url(#p216a566c14)">
     <use xlink:href="#mc46608aa08" x="582.970157" y="131.300426" style="fill: #d62728; stroke: #d62728"/>
     <use xlink:href="#mc46608aa08" x="633.324435" y="131.261347" style="fill: #d62728; stroke: #d62728"/>
     <use xlink:href="#mc46608aa08" x="658.501574" y="131.222489" style="fill: #d62728; stroke: #d62728"/>
     <use xlink:href="#mc46608aa08" x="683.678713" y="131.220443" style="fill: #d62728; stroke: #d62728"/>
     <use xlink:href="#mc46608aa08" x="708.855852" y="118.295736" style="fill: #d62728; stroke: #d62728"/>
     <use xlink:href="#mc46608aa08" x="734.032991" y="103.735184" style="fill: #d62728; stroke: #d62728"/>
     <use xlink:href="#mc46608aa08" x="784.387269" y="105.100513" style="fill: #d62728; stroke: #d62728"/>
    </g>
   </g>
   <g id="line2d_81">
    <path d="M 582.970157 59.651966 
L 633.324435 58.523575 
L 658.501574 58.534269 
L 683.678713 56.523961 
L 708.855852 56.318552 
L 734.032991 56.172908 
L 784.387269 54.880917 
" clip-path="url(#p216a566c14)" style="fill: none; stroke: #2ca02c; stroke-width: 1.8; stroke-linecap: square"/>
    <g clip-path="url(#p216a566c14)">
     <use xlink:href="#m119536cd57" x="582.970157" y="59.651966" style="fill: #2ca02c; stroke: #2ca02c"/>
     <use xlink:href="#m119536cd57" x="633.324435" y="58.523575" style="fill: #2ca02c; stroke: #2ca02c"/>
     <use xlink:href="#m119536cd57" x="658.501574" y="58.534269" style="fill: #2ca02c; stroke: #2ca02c"/>
     <use xlink:href="#m119536cd57" x="683.678713" y="56.523961" style="fill: #2ca02c; stroke: #2ca02c"/>
     <use xlink:href="#m119536cd57" x="708.855852" y="56.318552" style="fill: #2ca02c; stroke: #2ca02c"/>
     <use xlink:href="#m119536cd57" x="734.032991" y="56.172908" style="fill: #2ca02c; stroke: #2ca02c"/>
     <use xlink:href="#m119536cd57" x="784.387269" y="54.880917" style="fill: #2ca02c; stroke: #2ca02c"/>
    </g>
   </g>
   <g id="line2d_82">
    <path d="M 684.543288 264.96 
L 684.543288 43.2 
" clip-path="url(#p216a566c14)" style="fill: none; stroke-dasharray: 2.96,1.28; stroke-dashoffset: 0; stroke: #888888; stroke-width: 0.8"/>
   </g>
   <g id="patch_9">
    <path d="M 572.899301 264.96 
L 572.899301 43.2 
" style="fill: none; stroke: #222222; stroke-width: 0.8; stroke-linejoin: miter; stroke-linecap: square"/>
   </g>
   <g id="patch_10">
    <path d="M 572.899301 264.96 
L 794.458125 264.96 
" style="fill: none; stroke: #222222; stroke-width: 0.8; stroke-linejoin: miter; stroke-linecap: square"/>
   </g>
   <g id="text_30">
    <!--  $\beta_c$ -->
    <g style="fill: #888888" transform="translate(684.543288 59.664549) scale(0.08 -0.08)">
     <use xlink:href="#DejaVuSans-20" transform="translate(0 0.390625)"/>
     <use xlink:href="#DejaVuSans-Oblique-3b2" transform="translate(31.787109 0.390625)"/>
     <use xlink:href="#DejaVuSans-Oblique-63" transform="translate(95.605469 -16.015625) scale(0.7)"/>
    </g>
   </g>
  </g>
  <g id="text_31">
   <!-- Tier 4 finite-size scaling near the lattice critical point -->
   <g transform="translate(247.559063 11.998125) scale(0.12 -0.12)">
    <defs>
     <path id="DejaVuSans-54" d="M -19 4666 
L 3928 4666 
L 3928 4134 
L 2272 4134 
L 2272 0 
L 1638 0 
L 1638 4134 
L -19 4134 
L -19 4666 
z
" transform="scale(0.015625)"/>
     <path id="DejaVuSans-74" d="M 1172 4494 
L 1172 3500 
L 2356 3500 
L 2356 3053 
L 1172 3053 
L 1172 1153 
Q 1172 725 1289 603 
Q 1406 481 1766 481 
L 2356 481 
L 2356 0 
L 1766 0 
Q 1100 0 847 248 
Q 594 497 594 1153 
L 594 3053 
L 172 3053 
L 172 3500 
L 594 3500 
L 594 4494 
L 1172 4494 
z
" transform="scale(0.015625)"/>
     <path id="DejaVuSans-2d" d="M 313 2009 
L 1997 2009 
L 1997 1497 
L 313 1497 
L 313 2009 
z
" transform="scale(0.015625)"/>
     <path id="DejaVuSans-63" d="M 3122 3366 
L 3122 2828 
Q 2878 2963 2633 3030 
Q 2388 3097 2138 3097 
Q 1578 3097 1268 2742 
Q 959 2388 959 1747 
Q 959 1106 1268 751 
Q 1578 397 2138 397 
Q 2388 397 2633 464 
Q 2878 531 3122 666 
L 3122 134 
Q 2881 22 2623 -34 
Q 2366 -91 2075 -91 
Q 1284 -91 818 406 
Q 353 903 353 1747 
Q 353 2603 823 3093 
Q 1294 3584 2113 3584 
Q 2378 3584 2631 3529 
Q 2884 3475 3122 3366 
z
" transform="scale(0.015625)"/>
     <path id="DejaVuSans-68" d="M 3513 2113 
L 3513 0 
L 2938 0 
L 2938 2094 
Q 2938 2591 2744 2837 
Q 2550 3084 2163 3084 
Q 1697 3084 1428 2787 
Q 1159 2491 1159 1978 
L 1159 0 
L 581 0 
L 581 4863 
L 1159 4863 
L 1159 2956 
Q 1366 3272 1645 3428 
Q 1925 3584 2291 3584 
Q 2894 3584 3203 3211 
Q 3513 2838 3513 2113 
z
" transform="scale(0.015625)"/>
     <path id="DejaVuSans-70" d="M 1159 525 
L 1159 -1331 
L 581 -1331 
L 581 3500 
L 1159 3500 
L 1159 2969 
Q 1341 3281 1617 3432 
Q 1894 3584 2278 3584 
Q 2916 3584 3314 3078 
Q 3713 2572 3713 1747 
Q 3713 922 3314 415 
Q 2916 -91 2278 -91 
Q 1894 -91 1617 61 
Q 1341 213 1159 525 
z
M 3116 1747 
Q 3116 2381 2855 2742 
Q 2594 3103 2138 3103 
Q 1681 3103 1420 2742 
Q 1159 2381 1159 1747 
Q 1159 1113 1420 752 
Q 1681 391 2138 391 
Q 2594 391 2855 752 
Q 3116 1113 3116 1747 
z
" transform="scale(0.015625)"/>
     <path id="DejaVuSans-6f" d="M 1959 3097 
Q 1497 3097 1228 2736 
Q 959 2375 959 1747 
Q 959 1119 1226 758 
Q 1494 397 1959 397 
Q 2419 397 2687 759 
Q 2956 1122 2956 1747 
Q 2956 2369 2687 2733 
Q 2419 3097 1959 3097 
z
M 1959 3584 
Q 2709 3584 3137 3096 
Q 3566 2609 3566 1747 
Q 3566 888 3137 398 
Q 2709 -91 1959 -91 
Q 1206 -91 779 398 
Q 353 888 353 1747 
Q 353 2609 779 3096 
Q 1206 3584 1959 3584 
z
" transform="scale(0.015625)"/>
    </defs>
    <use xlink:href="#DejaVuSans-54"/>
    <use xlink:href="#DejaVuSans-69" transform="translate(57.958984 0)"/>
    <use xlink:href="#DejaVuSans-65" transform="translate(85.742188 0)"/>
    <use xlink:href="#DejaVuSans-72" transform="translate(147.265625 0)"/>
    <use xlink:href="#DejaVuSans-20" transform="translate(188.378906 0)"/>
    <use xlink:href="#DejaVuSans-34" transform="translate(220.166016 0)"/>
    <use xlink:href="#DejaVuSans-20" transform="translate(283.789062 0)"/>
    <use xlink:href="#DejaVuSans-66" transform="translate(315.576172 0)"/>
    <use xlink:href="#DejaVuSans-69" transform="translate(350.78125 0)"/>
    <use xlink:href="#DejaVuSans-6e" transform="translate(378.564453 0)"/>
    <use xlink:href="#DejaVuSans-69" transform="translate(441.943359 0)"/>
    <use xlink:href="#DejaVuSans-74" transform="translate(469.726562 0)"/>
    <use xlink:href="#DejaVuSans-65" transform="translate(508.935547 0)"/>
    <use xlink:href="#DejaVuSans-2d" transform="translate(570.458984 0)"/>
    <use xlink:href="#DejaVuSans-73" transform="translate(606.542969 0)"/>
    <use xlink:href="#DejaVuSans-69" transform="translate(658.642578 0)"/>
    <use xlink:href="#DejaVuSans-7a" transform="translate(686.425781 0)"/>
    <use xlink:href="#DejaVuSans-65" transform="translate(738.916016 0)"/>
    <use xlink:href="#DejaVuSans-20" transform="translate(800.439453 0)"/>
    <use xlink:href="#DejaVuSans-73" transform="translate(832.226562 0)"/>
    <use xlink:href="#DejaVuSans-63" transform="translate(884.326172 0)"/>
    <use xlink:href="#DejaVuSans-61" transform="translate(939.306641 0)"/>
    <use xlink:href="#DejaVuSans-6c" transform="translate(1000.585938 0)"/>
    <use xlink:href="#DejaVuSans-69" transform="translate(1028.369141 0)"/>
    <use xlink:href="#DejaVuSans-6e" transform="translate(1056.152344 0)"/>
    <use xlink:href="#DejaVuSans-67" transform="translate(1119.53125 0)"/>
    <use xlink:href="#DejaVuSans-20" transform="translate(1183.007812 0)"/>
    <use xlink:href="#DejaVuSans-6e" transform="translate(1214.794922 0)"/>
    <use xlink:href="#DejaVuSans-65" transform="translate(1278.173828 0)"/>
    <use xlink:href="#DejaVuSans-61" transform="translate(1339.697266 0)"/>
    <use xlink:href="#DejaVuSans-72" transform="translate(1400.976562 0)"/>
    <use xlink:href="#DejaVuSans-20" transform="translate(1442.089844 0)"/>
    <use xlink:href="#DejaVuSans-74" transform="translate(1473.876953 0)"/>
    <use xlink:href="#DejaVuSans-68" transform="translate(1513.085938 0)"/>
    <use xlink:href="#DejaVuSans-65" transform="translate(1576.464844 0)"/>
    <use xlink:href="#DejaVuSans-20" transform="translate(1637.988281 0)"/>
    <use xlink:href="#DejaVuSans-6c" transform="translate(1669.775391 0)"/>
    <use xlink:href="#DejaVuSans-61" transform="translate(1697.558594 0)"/>
    <use xlink:href="#DejaVuSans-74" transform="translate(1758.837891 0)"/>
    <use xlink:href="#DejaVuSans-74" transform="translate(1798.046875 0)"/>
    <use xlink:href="#DejaVuSans-69" transform="translate(1837.255859 0)"/>
    <use xlink:href="#DejaVuSans-63" transform="translate(1865.039062 0)"/>
    <use xlink:href="#DejaVuSans-65" transform="translate(1920.019531 0)"/>
    <use xlink:href="#DejaVuSans-20" transform="translate(1981.542969 0)"/>
    <use xlink:href="#DejaVuSans-63" transform="translate(2013.330078 0)"/>
    <use xlink:href="#DejaVuSans-72" transform="translate(2068.310547 0)"/>
    <use xlink:href="#DejaVuSans-69" transform="translate(2109.423828 0)"/>
    <use xlink:href="#DejaVuSans-74" transform="translate(2137.207031 0)"/>
    <use xlink:href="#DejaVuSans-69" transform="translate(2176.416016 0)"/>
    <use xlink:href="#DejaVuSans-63" transform="translate(2204.199219 0)"/>
    <use xlink:href="#DejaVuSans-61" transform="translate(2259.179688 0)"/>
    <use xlink:href="#DejaVuSans-6c" transform="translate(2320.458984 0)"/>
    <use xlink:href="#DejaVuSans-20" transform="translate(2348.242188 0)"/>
    <use xlink:href="#DejaVuSans-70" transform="translate(2380.029297 0)"/>
    <use xlink:href="#DejaVuSans-6f" transform="translate(2443.505859 0)"/>
    <use xlink:href="#DejaVuSans-69" transform="translate(2504.6875 0)"/>
    <use xlink:href="#DejaVuSans-6e" transform="translate(2532.470703 0)"/>
    <use xlink:href="#DejaVuSans-74" transform="translate(2595.849609 0)"/>
   </g>
  </g>
 </g>
 <defs>
  <clipPath id="pa0536854dd">
   <rect x="41.158125" y="43.2" width="221.558824" height="221.76"/>
  </clipPath>
  <clipPath id="pb7c60b6c0a">
   <rect x="307.028713" y="43.2" width="221.558824" height="221.76"/>
  </clipPath>
  <clipPath id="p216a566c14">
   <rect x="572.899301" y="43.2" width="221.558824" height="221.76"/>
  </clipPath>
 </defs>
</svg>
